<svg xmlns="http://www.w3.org/2000/svg" viewBox="0 0 512 512" width="512" height="512">
  <defs>
    <linearGradient id="cg-bg-grad" x1="0%" y1="0%" x2="100%" y2="100%">
      <stop offset="0%" stop-color="#111625"/>
      <stop offset="50%" stop-color="#0C101B"/>
      <stop offset="100%" stop-color="#070A12"/>
    </linearGradient>
    <radialGradient id="cg-bg-glow" cx="50%" cy="45%" r="55%">
      <stop offset="0%" stop-color="#3859FF" stop-opacity="0.35"/>
      <stop offset="65%" stop-color="#00D2FF" stop-opacity="0.08"/>
      <stop offset="100%" stop-color="#000000" stop-opacity="0.0"/>
    </radialGradient>
    <linearGradient id="cg-border-grad" x1="0%" y1="0%" x2="100%" y2="100%">
      <stop offset="0%" stop-color="#3B82F6" stop-opacity="0.6"/>
      <stop offset="100%" stop-color="#1E293B" stop-opacity="0.2"/>
    </linearGradient>
    <linearGradient id="cg-cloud-grad" x1="15%" y1="90%" x2="85%" y2="10%">
      <stop offset="0%" stop-color="#2D4BFF"/>
      <stop offset="50%" stop-color="#3859FF"/>
      <stop offset="100%" stop-color="#00D2FF"/>
    </linearGradient>
    <linearGradient id="cg-beam-grad" x1="0%" y1="100%" x2="0%" y2="0%">
      <stop offset="0%" stop-color="#00D2FF"/>
      <stop offset="100%" stop-color="#FFFFFF"/>
    </linearGradient>
    <linearGradient id="cg-glow-grad" x1="0%" y1="0%" x2="100%" y2="100%">
      <stop offset="0%" stop-color="#FFFFFF" stop-opacity="0.4"/>
      <stop offset="100%" stop-color="#3859FF" stop-opacity="0.0"/>
    </linearGradient>
    <filter id="cg-icon-shadow" x="-20%" y="-20%" width="140%" height="140%" filterUnits="userSpaceOnUse">
      <feDropShadow dx="0" dy="12" stdDeviation="16" flood-color="#1A365D" flood-opacity="0.6"/>
    </filter>
  </defs>

  <!-- Squircle Base Canvas -->
  <rect x="16" y="16" width="480" height="480" rx="108" ry="108" fill="url(#cg-bg-grad)"/>
  <rect x="16" y="16" width="480" height="480" rx="108" ry="108" fill="url(#cg-bg-glow)"/>
  <rect x="16" y="16" width="480" height="480" rx="108" ry="108" fill="none" stroke="url(#cg-border-grad)" stroke-width="2"/>

  <!-- Centered Scaled Glyph (Base 128x128 scaled by 2.8x: offset x=76.8, y=76.8) -->
  <g transform="translate(77, 77) scale(2.8)" filter="url(#cg-icon-shadow)">
    <path d="M 49 96 L 26 96 C 18 96 12 89.5 12 81.5 C 12 74.2 16.8 68.2 23.8 66.8 C 23.3 64.7 23 62.6 23 60.5 C 23 46 34.5 34 49 34 C 54.6 34 59.8 35.8 64 38.8 C 68.8 30.5 77.8 25 88 25 C 103.5 25 116 37.5 116 53 C 116 55.2 115.7 57.3 115.2 59.3 C 121.5 62.5 126 69 126 76.5 C 126 87.3 117.2 96 106.5 96 L 79 96 L 79 73 C 79 64.7 72.3 58 64 58 C 55.7 58 49 64.7 49 73 Z"
          fill="url(#cg-cloud-grad)"/>
    <path d="M 49 96 L 26 96 C 18 96 12 89.5 12 81.5 C 12 74.2 16.8 68.2 23.8 66.8 C 23.3 64.7 23 62.6 23 60.5 C 23 46 34.5 34 49 34 C 54.6 34 59.8 35.8 64 38.8 C 68.8 30.5 77.8 25 88 25 C 103.5 25 116 37.5 116 53 C 116 55.2 115.7 57.3 115.2 59.3 C 121.5 62.5 126 69 126 76.5 C 126 87.3 117.2 96 106.5 96 L 79 96 L 79 73 C 79 64.7 72.3 58 64 58 C 55.7 58 49 64.7 49 73 Z"
          fill="none"
          stroke="url(#cg-glow-grad)"
          stroke-width="1.5"
          stroke-linecap="round"/>
    <rect x="61.5" y="75" width="5" height="19" rx="2.5" fill="url(#cg-beam-grad)"/>
    <path d="M 58 71 L 64 65 L 70 71"
          fill="none"
          stroke="#FFFFFF"
          stroke-width="2.5"
          stroke-linecap="round"
          stroke-linejoin="round"/>
    <circle cx="64" cy="65" r="1.5" fill="#00D2FF"/>
  </g>
</svg>